# Blender v3.1.2 OBJ File: 'arch set 1 cleaned.blend'
# www.blender.org
mtllib 10.mtl
o 10_rect6603-9.005
v 0.500000 -0.150952 -0.469353
v 0.500000 0.184165 -0.379337
v 0.500000 0.500000 -0.232089
v 0.500000 0.500000 0.500000
v 0.500000 -0.500000 0.500000
v 0.500000 -0.500000 -0.500000
v -0.500000 -0.500000 -0.500000
v -0.500000 -0.150952 -0.469353
v -0.500000 0.184165 -0.379337
v -0.500000 0.500000 -0.232089
v -0.500000 0.500000 0.500000
v -0.500000 -0.500000 0.500000
v 0.500000 0.500000 -0.232089
v 0.500000 0.184165 -0.379337
v 0.500000 -0.150952 -0.469353
v 0.500000 -0.500000 -0.500000
v -0.500000 0.500000 -0.232089
v -0.500000 0.184165 -0.379337
v -0.500000 -0.150952 -0.469353
v -0.500000 -0.500000 -0.500000
v 0.500000 0.500000 -0.232089
v -0.500000 0.500000 -0.232089
v 0.500000 -0.500000 -0.500000
v -0.500000 -0.500000 -0.500000
vt 1.000000 0.999999
vt 0.267911 0.999999
vt 1.000000 0.000001
vt 1.000000 0.000001
vt 0.120664 0.684165
vt 0.267911 0.999999
vt 0.030647 0.349048
vt 0.000000 0.000001
vt 0.000000 1.000000
vt 0.000000 0.267911
vt 1.000000 0.267911
vt 0.120663 0.684165
vt 0.030647 0.349048
vt 0.000000 0.000001
vt 1.000000 0.999999
vt 0.000000 0.000000
vt 0.000000 1.000000
vt 1.000000 0.999999
vt 1.000000 0.000000
vt 0.000000 0.000001
vt 0.000000 0.999999
vt 0.000000 0.684165
vt 1.000000 0.684165
vt 1.000000 1.000000
vt 0.000000 0.349048
vt 1.000000 0.349049
vt 0.000000 0.000001
vt 1.000000 0.000001
vn -1.0000 0.0000 0.0000
vn 1.0000 0.0000 0.0000
vn 0.0000 1.0000 0.0000
vn -0.0000 -1.0000 0.0000
vn -0.0000 0.0000 1.0000
vn -0.0000 0.5000 -0.8660
vn 0.0000 0.3423 -0.9396
vn 0.0000 0.1747 -0.9846
vn 0.0000 0.1741 -0.9847
vn -0.0000 -0.0000 -1.0000
usemtl SVGMat.075
s off
f 11/1/1 17/2/1 12/3/1
f 5/4/2 14/5/2 13/6/2
f 5/4/2 15/7/2 14/5/2
f 5/4/2 16/8/2 15/7/2
f 4/9/3 21/10/3 22/11/3 11/1/3
f 12/3/1 17/2/1 18/12/1
f 12/3/1 18/12/1 19/13/1
f 12/3/1 19/13/1 20/14/1
f 4/15/2 5/4/2 13/6/2
f 23/16/4 5/17/4 12/18/4 24/19/4
f 12/3/5 5/20/5 4/9/5 11/1/5
s 1
f 3/21/6 2/22/7 9/23/7 10/24/6
f 2/22/7 1/25/8 8/26/9 9/23/7
f 1/25/8 6/27/10 7/28/10 8/26/9
