# Blender v3.1.2 OBJ File: 'arch set 1 cleaned.blend'
# www.blender.org
mtllib 12.mtl
o 12_rect6893.004
v -0.500000 0.500000 0.500000
v -0.500000 0.232102 0.500000
v -0.256898 0.351255 0.500000
v 0.000029 0.436494 0.500000
v 0.256949 0.351261 0.500000
v 0.500000 0.232125 0.500000
v 0.500000 0.500000 0.500000
v -0.500000 0.500000 -0.500000
v -0.500000 0.232102 -0.500000
v -0.256898 0.351255 -0.500000
v 0.000029 0.436494 -0.500000
v 0.256949 0.351261 -0.500000
v 0.500000 0.232125 -0.500000
v 0.500000 0.500000 -0.500000
v 0.000029 0.436494 0.500000
v 0.000029 0.436494 -0.500000
vt 0.000000 0.732102
vt 0.243102 0.851255
vt 0.000000 1.000000
vt 0.500029 0.936494
vt 1.000000 0.999999
vt 0.756949 0.851261
vt 0.500029 0.936494
vt 1.000000 0.732125
vt 0.000000 0.732102
vt 0.000000 1.000000
vt 0.243102 0.851255
vt 0.500029 0.936494
vt 1.000000 0.999999
vt 0.756949 0.851261
vt 0.500029 0.936494
vt 1.000000 0.732125
vt 0.999999 1.000000
vt 0.999999 0.732102
vt 0.000000 0.000000
vt 1.000000 0.000000
vt 0.000000 1.000000
vt 0.000000 0.732125
vt 0.000000 0.851255
vt 0.999999 0.851255
vt 0.000000 0.936493
vt 0.999999 0.936493
vt 0.000000 0.851261
vt 0.000000 0.936493
vt 0.999999 0.936493
vt 0.999999 0.851261
vn 0.0000 0.0000 1.0000
vn 0.0000 0.0000 -1.0000
vn -1.0000 -0.0000 0.0000
vn 0.0000 1.0000 0.0000
vn 1.0000 0.0000 0.0000
vn 0.3784 -0.9257 -0.0000
vn 0.4401 -0.8979 -0.0000
vn 0.3149 -0.9491 -0.0000
vn -0.3784 -0.9257 -0.0000
vn -0.3149 -0.9491 -0.0000
vn -0.4401 -0.8979 -0.0000
usemtl SVGMat.073
s off
f 2/1/1 3/2/1 1/3/1
f 3/2/1 15/4/1 1/3/1
f 15/4/1 7/5/1 1/3/1
f 5/6/1 7/5/1 4/7/1
f 5/6/1 6/8/1 7/5/1
f 9/9/2 8/10/2 10/11/2
f 10/11/2 8/10/2 16/12/2
f 16/12/2 8/10/2 14/13/2
f 12/14/2 11/15/2 14/13/2
f 12/14/2 14/13/2 13/16/2
f 2/1/3 1/3/3 8/17/3 9/18/3
f 1/19/4 7/20/4 14/13/4 8/10/4
f 7/21/5 6/22/5 13/16/5 14/13/5
s 1
f 3/23/6 2/1/7 9/18/7 10/24/6
f 15/25/8 3/23/6 10/24/6 16/26/8
f 5/27/9 4/28/10 11/29/10 12/30/9
f 6/22/11 5/27/9 12/30/9 13/16/11
