# Blender v3.1.2 OBJ File: 'arch set 1 cleaned.blend'
# www.blender.org
mtllib 15.mtl
o 15_circle7809.001
v 0.500000 -0.500000 -0.500000
v 0.500000 -0.183913 -0.449029
v 0.500000 0.090598 -0.307095
v 0.500000 0.307066 -0.090665
v 0.500000 0.449023 0.183792
v 0.500000 0.500000 0.500000
v 0.500000 -0.500000 0.500000
v -0.500000 -0.500000 -0.500000
v -0.500000 -0.183913 -0.449030
v -0.500000 0.090598 -0.307095
v -0.500000 0.307065 -0.090665
v -0.500000 0.449022 0.183792
v -0.500000 0.500000 0.500000
v -0.500000 -0.500000 0.500000
v 0.500000 -0.500000 -0.500000
v 0.500000 -0.183913 -0.449029
v 0.500000 0.090598 -0.307095
v 0.500000 0.307066 -0.090665
v 0.500000 0.449023 0.183792
v 0.500000 0.500000 0.500000
v -0.500000 -0.500000 -0.500000
v -0.500000 -0.183913 -0.449030
v -0.500000 0.090598 -0.307095
v -0.500000 0.307065 -0.090665
v -0.500000 0.449022 0.183792
v -0.500000 0.500000 0.500000
vt 0.050970 0.316087
vt 0.999999 0.000000
vt 0.000000 0.000000
vt 0.192905 0.590597
vt 0.409335 0.807065
vt 0.683792 0.949022
vt 0.999999 0.999999
vt 0.050971 0.316087
vt 0.000000 0.000001
vt 1.000000 0.000001
vt 0.192905 0.590598
vt 0.409335 0.807065
vt 0.683792 0.949022
vt 1.000000 1.000000
vt 0.000000 0.999999
vt 1.000000 1.000000
vt 1.000000 0.000000
vt 0.000000 0.000000
vt 0.000000 0.999999
vt 0.000000 0.316087
vt 0.000000 0.000001
vt 1.000000 0.000001
vt 1.000000 0.316087
vt 0.000000 0.590598
vt 1.000000 0.590598
vt 0.000000 0.807065
vt 1.000000 0.807065
vt 0.000000 0.949022
vt 1.000000 0.949022
vt 0.000000 0.999999
vt 1.000000 1.000000
vn 1.0000 0.0000 0.0000
vn -1.0000 0.0000 -0.0000
vn 0.0000 -1.0000 0.0000
vn -0.0000 -0.0000 1.0000
vn 0.0000 0.3159 -0.9488
vn -0.0000 0.0000 -1.0000
vn 0.0000 0.3160 -0.9488
vn -0.0000 0.5907 -0.8069
vn -0.0000 0.5906 -0.8070
vn -0.0000 0.8072 -0.5903
vn -0.0000 0.9487 -0.3161
vn -0.0000 1.0000 -0.0000
usemtl SVGMat.094
s off
f 16/1/1 7/2/1 15/3/1
f 17/4/1 7/2/1 16/1/1
f 18/5/1 7/2/1 17/4/1
f 19/6/1 7/2/1 18/5/1
f 20/7/1 7/2/1 19/6/1
f 22/8/2 21/9/2 14/10/2
f 23/11/2 22/8/2 14/10/2
f 24/12/2 23/11/2 14/10/2
f 25/13/2 24/12/2 14/10/2
f 26/14/2 25/13/2 14/10/2
f 15/3/3 7/15/3 14/16/3 21/17/3
f 7/18/4 20/19/4 26/14/4 14/10/4
s 1
f 2/20/5 1/21/6 8/22/6 9/23/7
f 3/24/8 2/20/5 9/23/7 10/25/9
f 4/26/10 3/24/8 10/25/9 11/27/10
f 5/28/11 4/26/10 11/27/10 12/29/11
f 6/30/12 5/28/11 12/29/11 13/31/12
