# Blender v3.1.2 OBJ File: 'arch set 1 cleaned.blend'
# www.blender.org
mtllib 16.mtl
o 16_circle7809-3.001
v -0.142585 0.266063 0.500000
v -0.265303 0.143534 0.500000
v -0.365356 0.001086 0.500000
v -0.439137 -0.156544 0.500000
v -0.484366 -0.323940 0.500000
v -0.500000 -0.500000 0.500000
v 0.500000 -0.500000 0.500000
v 0.484425 -0.323942 0.500000
v 0.439180 -0.156552 0.500000
v 0.365356 0.001071 0.500000
v 0.265339 0.143514 0.500000
v 0.142630 0.266037 0.500000
v -0.142585 0.266063 -0.500000
v -0.265303 0.143534 -0.500000
v -0.365356 0.001086 -0.500000
v -0.439137 -0.156544 -0.500000
v -0.484366 -0.323940 -0.500000
v -0.500000 -0.500000 -0.500000
v 0.500000 -0.500000 -0.500000
v 0.484425 -0.323942 -0.500000
v 0.439180 -0.156552 -0.500000
v 0.365356 0.001071 -0.500000
v 0.265339 0.143514 -0.500000
v 0.142630 0.266037 -0.500000
v 0.000031 0.365847 -0.500000
v 0.000031 0.365870 0.500000
vt 0.357415 0.766063
vt 0.642630 0.766037
vt 0.500031 0.865870
vt 0.234697 0.643534
vt 0.765339 0.643514
vt 0.134644 0.501086
vt 0.865356 0.501071
vt 0.060863 0.343456
vt 0.939179 0.343448
vt 0.015634 0.176060
vt 0.984425 0.176058
vt 0.000000 0.000000
vt 1.000000 0.000000
vt 0.357415 0.766063
vt 0.500031 0.865847
vt 0.642630 0.766037
vt 0.234697 0.643534
vt 0.765339 0.643514
vt 0.134644 0.501086
vt 0.865356 0.501071
vt 0.060863 0.343456
vt 0.939179 0.343448
vt 0.015634 0.176060
vt 0.984425 0.176058
vt 0.000000 0.000000
vt 1.000000 0.000000
vt 0.000000 1.000000
vt 1.000000 1.000000
vt 0.000000 0.766063
vt 0.000000 0.865870
vt 0.999999 0.865847
vt 1.000000 0.766063
vt 0.000000 0.766037
vt 1.000000 0.766037
vt 0.000000 0.643534
vt 1.000000 0.643534
vt 0.000000 0.643514
vt 1.000000 0.643514
vt 0.000000 0.501086
vt 1.000000 0.501086
vt 0.000000 0.501071
vt 1.000000 0.501071
vt 0.000000 0.343456
vt 1.000000 0.343456
vt 0.000000 0.343448
vt 1.000000 0.343448
vt 0.000000 0.176061
vt 1.000000 0.176061
vt 0.000000 0.176058
vt 1.000000 0.176058
vt 1.000000 0.000001
vt 0.000000 0.000001
vn 0.0000 0.0000 1.0000
vn 0.0000 0.0000 -1.0000
vn 0.0000 -1.0000 -0.0000
vn -0.6424 0.7664 -0.0000
vn -0.5733 0.8193 -0.0000
vn 0.5735 0.8192 -0.0000
vn 0.6424 0.7663 -0.0000
vn -0.7653 0.6436 0.0000
vn 0.7654 0.6436 0.0000
vn -0.8653 0.5013 0.0000
vn 0.8653 0.5013 0.0000
vn -0.9391 0.3437 0.0000
vn 0.9390 0.3438 0.0000
vn -0.9845 0.1753 0.0000
vn 0.9845 0.1752 0.0000
vn -0.9961 0.0885 0.0000
vn 0.9961 0.0881 0.0000
usemtl SVGMat.096
s off
f 1/1/1 12/2/1 26/3/1
f 2/4/1 12/2/1 1/1/1
f 2/4/1 11/5/1 12/2/1
f 3/6/1 11/5/1 2/4/1
f 3/6/1 10/7/1 11/5/1
f 4/8/1 10/7/1 3/6/1
f 4/8/1 9/9/1 10/7/1
f 5/10/1 9/9/1 4/8/1
f 5/10/1 8/11/1 9/9/1
f 6/12/1 8/11/1 5/10/1
f 6/12/1 7/13/1 8/11/1
f 13/14/2 25/15/2 24/16/2
f 14/17/2 13/14/2 24/16/2
f 14/17/2 24/16/2 23/18/2
f 15/19/2 14/17/2 23/18/2
f 15/19/2 23/18/2 22/20/2
f 16/21/2 15/19/2 22/20/2
f 16/21/2 22/20/2 21/22/2
f 17/23/2 16/21/2 21/22/2
f 17/23/2 21/22/2 20/24/2
f 18/25/2 17/23/2 20/24/2
f 18/25/2 20/24/2 19/26/2
f 7/13/3 6/12/3 18/27/3 19/28/3
s 1
f 1/29/4 26/30/5 25/31/5 13/32/4
f 26/30/6 12/33/7 24/34/7 25/31/6
f 2/35/8 1/29/4 13/32/4 14/36/8
f 12/33/7 11/37/9 23/38/9 24/34/7
f 3/39/10 2/35/8 14/36/8 15/40/10
f 11/37/9 10/41/11 22/42/11 23/38/9
f 4/43/12 3/39/10 15/40/10 16/44/12
f 10/41/11 9/45/13 21/46/13 22/42/11
f 5/47/14 4/43/12 16/44/12 17/48/14
f 9/45/13 8/49/15 20/50/15 21/46/13
f 6/12/16 5/47/14 17/48/14 18/51/16
f 8/49/15 7/52/17 19/26/17 20/50/15
