# Blender v3.1.2 OBJ File: 'arch set 1 cleaned.blend'
# www.blender.org
mtllib 5.mtl
o 5_path7018.004
v 0.500000 -0.500000 0.500000
v 0.500000 -0.500000 0.232087
v 0.500000 -0.322816 0.322907
v 0.500000 -0.232026 0.500000
v -0.500000 -0.500000 0.500000
v -0.500000 -0.500000 0.232087
v -0.500000 -0.322816 0.322907
v -0.500000 -0.232026 0.500000
vt 0.732087 0.000001
vt 1.000000 0.267974
vt 1.000000 0.000001
vt 0.822907 0.177184
vt 0.732087 0.000000
vt 0.999999 0.000000
vt 0.999999 0.267974
vt 0.822907 0.177184
vt 0.000000 0.732087
vt 0.000000 1.000000
vt 1.000000 0.999999
vt 1.000000 0.732086
vt 0.000000 0.000001
vt 0.000000 0.267974
vt 0.000000 0.177184
vt 0.000000 0.000001
vt 1.000000 0.000000
vt 1.000000 0.177184
vn 1.0000 0.0000 0.0000
vn -1.0000 0.0000 -0.0000
vn -0.0000 -1.0000 -0.0000
vn -0.0000 0.0000 1.0000
vn 0.0000 0.4561 -0.8899
vn 0.0000 0.8899 -0.4562
usemtl SVGMat.084
s off
f 2/1/1 4/2/1 1/3/1
f 2/1/1 3/4/1 4/2/1
f 6/5/2 5/6/2 8/7/2
f 6/5/2 8/7/2 7/8/2
f 2/9/3 1/10/3 5/11/3 6/12/3
f 1/13/4 4/14/4 8/7/4 5/6/4
f 3/15/5 2/16/5 6/17/5 7/18/5
f 4/14/6 3/15/6 7/18/6 8/7/6
