# Blender v3.1.2 OBJ File: 'arch set 1 cleaned.blend'
# www.blender.org
mtllib 8.mtl
o 8_rect6595.004
v 0.500000 -0.500001 -0.499999
v 0.500000 -0.232118 -0.500000
v 0.500000 -0.031907 -0.214056
v 0.500000 0.500000 0.232115
v 0.500000 0.500000 0.499999
v 0.500000 -0.500000 0.500001
v -0.500000 -0.500000 -0.499999
v -0.500000 -0.232118 -0.500000
v -0.500000 -0.031907 -0.214056
v -0.500000 0.213950 0.031864
v -0.500000 0.500001 0.499999
v -0.500000 -0.499999 0.500001
v 0.500000 0.213950 0.031864
v -0.500000 0.500000 0.232115
vt 0.000000 0.267882
vt 1.000000 0.000001
vt 0.000001 0.000000
vt 0.285944 0.468093
vt 0.999999 1.000000
vt 0.531864 0.713950
vt 0.732115 1.000000
vt 0.000000 0.267883
vt 0.000001 0.000000
vt 1.000000 0.000001
vt 0.285944 0.468093
vt 0.999999 1.000000
vt 0.531864 0.713950
vt 0.732115 1.000000
vt 0.000000 0.999999
vt 0.000000 0.732115
vt 1.000000 0.732115
vt 1.000000 0.000000
vt 1.000000 0.267883
vt 0.000000 1.000000
vt 1.000000 1.000000
vt 0.000000 0.000001
vt 0.000000 0.468093
vt 1.000000 0.468093
vt 0.000000 0.713950
vt 1.000000 0.713950
vt 0.000000 0.999999
vt 1.000000 1.000000
vn 1.0000 -0.0000 0.0000
vn -1.0000 0.0000 -0.0000
vn 0.0000 1.0000 -0.0000
vn 0.0000 -0.0000 -1.0000
vn -0.0000 -1.0000 0.0000
vn 0.0000 0.0000 1.0000
vn 0.0000 0.7658 -0.6431
vn 0.0000 0.8660 -0.5000
vn 0.0000 0.7661 -0.6427
vn 0.0000 0.6428 -0.7660
vn 0.0000 0.5000 -0.8660
usemtl SVGMat.072
s off
f 2/1/1 6/2/1 1/3/1
f 2/1/1 3/4/1 6/2/1
f 3/4/1 5/5/1 6/2/1
f 13/6/1 5/5/1 3/4/1
f 4/7/1 5/5/1 13/6/1
f 8/8/2 7/9/2 12/10/2
f 8/8/2 12/10/2 9/11/2
f 9/11/2 12/10/2 11/12/2
f 10/13/2 9/11/2 11/12/2
f 14/14/2 10/13/2 11/12/2
f 5/15/3 4/16/3 14/17/3 11/12/3
f 2/1/4 1/3/4 7/18/4 8/19/4
f 1/3/5 6/20/5 12/21/5 7/18/5
f 6/22/6 5/15/6 11/12/6 12/10/6
s 1
f 3/23/7 2/1/8 8/19/8 9/24/9
f 13/25/10 3/23/7 9/24/9 10/26/10
f 4/27/11 13/25/10 10/26/10 14/28/11
