# Blender v3.2.2 OBJ File: 'minetest - wooden beam set.blend'
# www.blender.org
o 3_Cube.061
v -0.650888 0.474111 0.562500
v -0.474111 0.650888 0.562500
v 0.448223 -0.625000 0.562500
v 0.625000 -0.448223 0.562500
v -0.625000 -0.375000 0.625000
v 0.625000 -0.375000 0.625000
v -0.625000 -0.625000 0.625000
v 0.625000 -0.625000 0.625000
v 0.650888 0.474111 0.437500
v 0.474111 0.650888 0.437500
v -0.448223 -0.625000 0.437500
v -0.625000 -0.448223 0.437500
v -0.650888 0.474111 0.437500
v -0.474111 0.650888 0.437500
v 0.448223 -0.625000 0.437500
v 0.625000 -0.448223 0.437500
v -0.625000 -0.375000 0.375000
v 0.625000 -0.375000 0.375000
v -0.625000 -0.625000 0.375000
v 0.625000 -0.625000 0.375000
v 0.650888 0.474111 0.562500
v 0.474111 0.650888 0.562500
v -0.448223 -0.625000 0.562500
v -0.625000 -0.448223 0.562500
vt 0.000000 0.000000
vt 0.000000 0.000000
vt 0.000000 0.000000
vt 0.000000 0.000000
vt 0.000000 0.000000
vt 0.000000 0.000000
vt 0.000000 0.000000
vt 0.000000 0.000000
vt 0.000000 0.000000
vt 0.000000 0.000000
vt 0.000000 0.000000
vt 0.000000 0.000000
vt 0.000000 0.000000
vt 0.000000 0.000000
vt 0.000000 0.000000
vt 0.000000 0.000000
vt 0.000000 0.000000
vt 0.000000 0.000000
vt 0.000000 0.000000
vt 0.000000 0.000000
vt 0.000000 0.000000
vt 0.000000 0.000000
vt 0.000000 0.000000
vt 0.000000 0.000000
vn -0.0000 -0.0000 1.0000
vn -0.0000 0.0000 -1.0000
vn -0.7071 0.7071 0.0000
vn 0.7071 -0.7071 0.0000
vn -0.7071 -0.7071 0.0000
vn 0.7071 0.7071 0.0000
vn 0.0000 -1.0000 0.0000
vn 0.0000 1.0000 0.0000
vn -1.0000 0.0000 0.0000
vn 1.0000 0.0000 0.0000
s off
f 1/1/1 3/2/1 4/3/1 2/4/1
f 9/5/2 11/6/2 12/7/2 10/8/2
f 5/9/1 7/10/1 8/11/1 6/12/1
f 13/13/2 14/14/2 16/15/2 15/16/2
f 21/17/1 22/18/1 24/19/1 23/20/1
f 17/21/2 18/22/2 20/23/2 19/24/2
f 2/4/3 14/14/3 13/13/3 1/1/3
f 3/2/4 15/16/4 16/15/4 4/3/4
f 1/1/5 13/13/5 15/16/5 3/2/5
f 4/3/6 16/15/6 14/14/6 2/4/6
f 7/10/7 19/24/7 20/23/7 8/11/7
f 6/12/8 18/22/8 17/21/8 5/9/8
f 5/9/9 17/21/9 19/24/9 7/10/9
f 8/11/10 20/23/10 18/22/10 6/12/10
f 10/8/6 22/18/6 21/17/6 9/5/6
f 11/6/5 23/20/5 24/19/5 12/7/5
f 9/5/4 21/17/4 23/20/4 11/6/4
f 12/7/3 24/19/3 22/18/3 10/8/3
