# Blender v3.2.2 OBJ File: 'minetest - wooden beam set.blend'
# www.blender.org
mtllib beam_5.mtl
o beam_5_Cube.076
v 0.586804 -0.394099 0.562500
v 0.363197 -0.505902 0.562500
v 0.111804 0.555901 0.562500
v -0.625000 -0.375000 0.625000
v 0.625000 -0.375000 0.625000
v -0.625000 -0.625000 0.625000
v 0.625000 -0.625000 0.625000
v -0.111803 0.444097 0.562500
v 0.586804 -0.394099 0.437500
v 0.363197 -0.505902 0.437500
v 0.111804 0.555901 0.437500
v -0.625000 -0.375000 0.375000
v 0.625000 -0.375000 0.375000
v -0.625000 -0.625000 0.375000
v 0.625000 -0.625000 0.375000
v -0.111803 0.444097 0.437500
vt 0.249875 -0.124375
vt 0.000125 -0.124375
vt 0.000125 1.124375
vt 0.249875 1.124375
vt 0.750125 -0.124375
vt 0.750125 1.009431
vt 0.999875 1.009431
vt 0.999875 -0.124375
vt 0.000000 1.125000
vt 0.000000 -0.125000
vt 0.250000 -0.125000
vt 0.250000 1.125000
vt 0.750125 -0.124375
vt 0.999875 -0.124375
vt 0.999875 1.009431
vt 0.750125 1.009431
vt 0.937500 0.092047
vt 0.812500 0.092047
vt 0.812500 1.000000
vt 0.937500 1.000000
vt 0.062500 0.625000
vt 0.187500 0.625000
vt 0.187500 0.375000
vt 0.062500 0.375000
vt -0.000000 1.125000
vt -0.000000 -0.125000
vt 0.750000 1.125000
vt 1.000000 1.125000
vt 1.000000 -0.125000
vt 0.750000 -0.125000
vt 0.750000 -0.000000
vt 0.750000 0.250000
vt 1.000000 0.250000
vt 1.000000 -0.000000
vt -0.000000 0.000000
vt -0.000000 0.250000
vt 0.250000 0.250000
vt 0.250000 0.000000
vt 0.937500 0.375000
vt 0.812500 0.375000
vt 0.812500 0.625000
vt 0.937500 0.625000
vt 0.187500 0.000000
vt 0.062500 0.000000
vt 0.062500 0.907953
vt 0.187500 0.907953
vn 0.0000 0.0000 1.0000
vn 0.0000 0.0000 -1.0000
vn 0.8944 0.4472 0.0000
vn 0.4472 -0.8944 0.0000
vn 0.0000 -1.0000 0.0000
vn 0.0000 1.0000 0.0000
vn -1.0000 0.0000 0.0000
vn 1.0000 0.0000 0.0000
vn -0.4472 0.8944 0.0000
vn -0.8944 -0.4472 0.0000
usemtl beam
s off
f 4/1/1 6/2/1 7/3/1 5/4/1
f 8/5/1 2/6/1 1/7/1 3/8/1
f 12/9/2 13/10/2 15/11/2 14/12/2
f 16/13/2 11/14/2 9/15/2 10/16/2
f 1/17/3 9/18/3 11/19/3 3/20/3
f 2/21/4 10/22/4 9/23/4 1/24/4
f 6/25/5 14/12/5 15/11/5 7/26/5
f 5/27/6 13/28/6 12/29/6 4/30/6
f 4/31/7 12/32/7 14/33/7 6/34/7
f 7/35/8 15/36/8 13/37/8 5/38/8
f 3/39/9 11/40/9 16/41/9 8/42/9
f 8/43/10 16/44/10 10/45/10 2/46/10
