# Blender v3.2.2 OBJ File: 'minetest - wooden beam set.blend'
# www.blender.org
mtllib beam_3.mtl
o beam_3_Cube.075
v -0.650888 0.474111 0.562500
v -0.474111 0.650888 0.562500
v 0.448223 -0.625000 0.562500
v 0.625000 -0.448223 0.562500
v -0.625000 -0.375000 0.625000
v 0.625000 -0.375000 0.625000
v -0.625000 -0.625000 0.625000
v 0.625000 -0.625000 0.625000
v 0.650888 0.474111 0.435500
v 0.474111 0.650888 0.435500
v -0.448223 -0.625000 0.435500
v -0.625000 -0.448223 0.435500
v -0.650888 0.474111 0.437500
v -0.474111 0.650888 0.437500
v 0.448223 -0.625000 0.437500
v 0.625000 -0.448223 0.437500
v -0.625000 -0.375000 0.375000
v 0.625000 -0.375000 0.375000
v -0.625000 -0.625000 0.375000
v 0.625000 -0.625000 0.375000
v 0.650888 0.474111 0.560500
v 0.474111 0.650888 0.560500
v -0.448223 -0.625000 0.560500
v -0.625000 -0.448223 0.560500
vt 0.750125 -0.249250
vt 0.750125 1.249250
vt 0.999875 1.249250
vt 0.999875 -0.249250
vt 0.249875 -0.124375
vt 0.249875 1.124375
vt 0.000125 1.124375
vt 0.000125 -0.124375
vt 0.249875 -0.124375
vt 0.000125 -0.124375
vt 0.000125 1.124375
vt 0.249875 1.124375
vt 0.750125 -0.249250
vt 0.999875 -0.249250
vt 0.999875 1.249250
vt 0.750125 1.249250
vt 0.249875 -0.124375
vt 0.000125 -0.124375
vt 0.000125 1.124375
vt 0.249875 1.124375
vt 0.249875 -0.124375
vt 0.249875 1.124375
vt 0.000125 1.124375
vt 0.000125 -0.124375
vt 0.062500 0.687500
vt 0.187500 0.687500
vt 0.187500 0.437500
vt 0.062500 0.437500
vt 0.812500 0.687500
vt 0.937500 0.687500
vt 0.937500 0.437500
vt 0.812500 0.437500
vt -0.000000 1.125000
vt 0.250000 1.125000
vt 0.250000 -0.125000
vt -0.000000 -0.125000
vt 0.750000 1.125000
vt 1.000000 1.125000
vt 1.000000 -0.125000
vt 0.750000 -0.125000
vt 0.750000 0.250000
vt 1.000000 0.250000
vt 1.000000 0.000000
vt 0.750000 0.000000
vt 0.250000 0.250000
vt 0.250000 0.000000
vt 0.000000 0.000000
vt 0.000000 0.250000
vt 0.812500 0.687500
vt 0.937500 0.687500
vt 0.937500 0.437500
vt 0.812500 0.437500
vt 0.187500 0.437500
vt 0.062500 0.437500
vt 0.062500 0.687500
vt 0.187500 0.687500
vn -0.0000 -0.0000 1.0000
vn -0.0000 0.0000 -1.0000
vn -0.7071 0.7071 0.0000
vn 0.7071 -0.7071 0.0000
vn -0.7071 -0.7071 0.0000
vn 0.7071 0.7071 0.0000
vn 0.0000 -1.0000 0.0000
vn 0.0000 1.0000 0.0000
vn -1.0000 0.0000 0.0000
vn 1.0000 0.0000 0.0000
usemtl beam
s off
f 1/1/1 3/2/1 4/3/1 2/4/1
f 9/5/2 11/6/2 12/7/2 10/8/2
f 5/9/1 7/10/1 8/11/1 6/12/1
f 13/13/2 14/14/2 16/15/2 15/16/2
f 21/17/1 22/18/1 24/19/1 23/20/1
f 17/21/2 18/22/2 20/23/2 19/24/2
f 2/25/3 14/26/3 13/27/3 1/28/3
f 3/29/4 15/30/4 16/31/4 4/32/4
f 1/1/5 13/13/5 15/16/5 3/2/5
f 4/3/6 16/15/6 14/14/6 2/4/6
f 7/33/7 19/34/7 20/35/7 8/36/7
f 6/37/8 18/38/8 17/39/8 5/40/8
f 5/41/9 17/42/9 19/43/9 7/44/9
f 8/45/10 20/46/10 18/47/10 6/48/10
f 10/49/6 22/50/6 21/51/6 9/52/6
f 11/53/5 23/54/5 24/55/5 12/56/5
f 9/5/4 21/17/4 23/20/4 11/6/4
f 12/7/3 24/19/3 22/18/3 10/8/3
