# Blender v3.2.2 OBJ File: 'minetest - wooden beam set.blend'
# www.blender.org
o beam_7_Cube.067
v -0.375000 -0.375000 0.625000
v -0.375000 0.375000 0.625000
v 0.375000 -0.375000 0.625000
v 0.375000 0.375000 0.625000
v -0.625000 -0.375000 0.625000
v -0.625000 0.375000 0.625000
v 0.625000 -0.375000 0.625000
v 0.625000 0.375000 0.625000
v -0.375000 0.625000 0.625000
v 0.375000 0.625000 0.625000
v -0.625000 0.625000 0.625000
v 0.625000 0.625000 0.625000
v -0.375000 -0.625000 0.625000
v 0.375000 -0.625000 0.625000
v -0.625000 -0.625000 0.625000
v 0.625000 -0.625000 0.625000
v -0.375000 -0.375000 0.375000
v -0.375000 0.375000 0.375000
v 0.375000 -0.375000 0.375000
v 0.375000 0.375000 0.375000
v -0.625000 -0.375000 0.375000
v -0.625000 0.375000 0.375000
v 0.625000 -0.375000 0.375000
v 0.625000 0.375000 0.375000
v -0.375000 0.625000 0.375000
v 0.375000 0.625000 0.375000
v -0.625000 0.625000 0.375000
v 0.625000 0.625000 0.375000
v -0.375000 -0.625000 0.375000
v 0.375000 -0.625000 0.375000
v -0.625000 -0.625000 0.375000
v 0.625000 -0.625000 0.375000
vt 0.750125 0.874625
vt 0.750125 0.125375
vt 0.999875 0.125375
vt 0.999875 0.874625
vt 0.249875 0.125375
vt 0.249875 0.874625
vt 0.000125 0.874625
vt 0.000125 0.125375
vt 0.000125 -0.124375
vt 0.249875 -0.124375
vt 0.750125 -0.124375
vt 0.999875 -0.124375
vt 0.750125 0.874625
vt 0.750125 0.125375
vt 0.999875 0.125375
vt 0.999875 0.874625
vt 0.249875 1.124375
vt 0.000125 1.124375
vt 0.999875 1.124375
vt 0.750125 1.124375
vt 0.249875 0.125375
vt 0.249875 0.874625
vt 0.000125 0.874625
vt 0.000125 0.125375
vt 0.750125 0.874625
vt 0.999875 0.874625
vt 0.999875 0.125375
vt 0.750125 0.125375
vt 0.249875 0.125375
vt 0.000125 0.125375
vt 0.000125 0.874625
vt 0.249875 0.874625
vt 0.249875 -0.124375
vt 0.000125 -0.124375
vt 0.999875 -0.124375
vt 0.750125 -0.124375
vt 0.750125 0.874625
vt 0.999875 0.874625
vt 0.999875 0.125375
vt 0.750125 0.125375
vt 0.000125 1.124375
vt 0.249875 1.124375
vt 0.750125 1.124375
vt 0.999875 1.124375
vt 0.249875 0.125375
vt 0.000125 0.125375
vt 0.000125 0.874625
vt 0.249875 0.874625
vt 0.250000 0.125000
vt 0.250000 0.875000
vt 0.000000 0.875000
vt -0.000000 0.125000
vt 0.750000 0.875000
vt 0.750000 0.125000
vt 1.000000 0.125000
vt 1.000000 0.875000
vt 0.750000 0.875000
vt 0.750000 0.125000
vt 1.000000 0.125000
vt 1.000000 0.875000
vt 0.250000 0.125000
vt 0.250000 0.875000
vt 0.000000 0.875000
vt -0.000000 0.125000
vt -0.000000 0.875000
vt -0.000000 0.125000
vt 0.250000 0.125000
vt 0.250000 0.875000
vt 1.000000 0.125000
vt 1.000000 0.875000
vt 0.750000 0.875000
vt 0.750000 0.125000
vt 0.000000 0.875000
vt -0.000000 0.125000
vt 0.250000 0.125000
vt 0.250000 0.875000
vt 0.000000 1.125000
vt 0.250000 1.125000
vt -0.000000 -0.125000
vt 0.250000 -0.125000
vt 1.000000 -0.125000
vt 0.750000 -0.125000
vt -0.000000 -0.125000
vt 0.250000 -0.125000
vt 1.000000 0.125000
vt 1.000000 0.875000
vt 0.750000 0.875000
vt 0.750000 0.125000
vt 1.000000 1.125000
vt 0.750000 1.125000
vt 1.000000 -0.125000
vt 0.750000 -0.125000
vt 1.000000 1.125000
vt 0.750000 1.125000
vt -0.000000 1.125000
vt 0.250000 1.125000
vn 0.0000 0.0000 1.0000
vn 0.0000 0.0000 -1.0000
vn 1.0000 0.0000 0.0000
vn -1.0000 0.0000 0.0000
vn 0.0000 1.0000 0.0000
vn 0.0000 -1.0000 0.0000
s off
f 1/1/1 2/2/1 6/3/1 5/4/1
f 4/5/1 3/6/1 7/7/1 8/8/1
f 4/5/1 8/8/1 12/9/1 10/10/1
f 6/3/1 2/2/1 9/11/1 11/12/1
f 2/13/1 4/14/1 10/15/1 9/16/1
f 7/7/1 3/6/1 14/17/1 16/18/1
f 1/1/1 5/4/1 15/19/1 13/20/1
f 3/21/1 1/22/1 13/23/1 14/24/1
f 17/25/2 21/26/2 22/27/2 18/28/2
f 20/29/2 24/30/2 23/31/2 19/32/2
f 20/29/2 26/33/2 28/34/2 24/30/2
f 22/27/2 27/35/2 25/36/2 18/28/2
f 18/37/2 25/38/2 26/39/2 20/40/2
f 23/31/2 32/41/2 30/42/2 19/32/2
f 17/25/2 29/43/2 31/44/2 21/26/2
f 19/45/2 30/46/2 29/47/2 17/48/2
f 2/49/3 1/50/3 17/51/3 18/52/3
f 3/53/4 4/54/4 20/55/4 19/56/4
f 1/57/5 3/58/5 19/59/5 17/60/5
f 4/61/6 2/62/6 18/63/6 20/64/6
f 5/65/4 6/66/4 22/67/4 21/68/4
f 8/69/3 7/70/3 23/71/3 24/72/3
f 9/73/5 10/74/5 26/75/5 25/76/5
f 11/77/5 9/73/5 25/76/5 27/78/5
f 10/74/5 12/79/5 28/80/5 26/75/5
f 12/81/3 8/69/3 24/72/3 28/82/3
f 6/66/4 11/83/4 27/84/4 22/67/4
f 14/85/6 13/86/6 29/87/6 30/88/6
f 13/86/6 15/89/6 31/90/6 29/87/6
f 16/91/6 14/85/6 30/88/6 32/92/6
f 7/70/3 16/93/3 32/94/3 23/71/3
f 15/95/4 5/65/4 21/68/4 31/96/4
