# Blender v3.2.2 OBJ File: 'minetest - wooden beam set.blend'
# www.blender.org
mtllib beam_6.mtl
o beam_6_Cube.074
v -0.625000 -0.375000 0.625000
v 0.625000 -0.375000 0.625000
v -0.625000 -0.625000 0.625000
v 0.625000 -0.625000 0.625000
v -0.625000 -0.375000 0.375000
v 0.625000 -0.375000 0.375000
v -0.625000 -0.625000 0.375000
v 0.625000 -0.625000 0.375000
v 0.586804 -0.394099 0.562500
v 0.363197 -0.505902 0.562500
v 0.111804 0.555901 0.562500
v -0.111803 0.444097 0.562500
v 0.586804 -0.394099 0.437500
v 0.363197 -0.505902 0.437500
v 0.111804 0.555901 0.437500
v -0.111803 0.444097 0.437500
v -0.586803 -0.394099 0.560500
v -0.363197 -0.505902 0.560500
v -0.111803 0.555901 0.560500
v 0.111803 0.444097 0.560500
v -0.586803 -0.394099 0.435500
v -0.363197 -0.505902 0.435500
v -0.111803 0.555901 0.435500
v 0.111803 0.444097 0.435500
vt 0.250000 -0.125000
vt 0.000000 -0.125000
vt 0.000000 1.125000
vt 0.250000 1.125000
vt 0.250000 -0.125000
vt 0.250000 1.125000
vt 0.000000 1.125000
vt 0.000000 -0.125000
vt 0.250000 -0.125000
vt 0.250000 1.125000
vt 0.750000 1.125000
vt 1.000000 1.125000
vt 1.000000 -0.125000
vt 0.750000 -0.125000
vt 0.000125 1.124375
vt 0.000125 1.124375
vt 0.249875 1.124375
vt 0.249875 1.124375
vt 0.249875 -0.124375
vt 0.249875 -0.124375
vt 0.000125 -0.124375
vt 0.000125 -0.124375
vt 0.750125 -0.124375
vt 0.750125 1.009431
vt 0.999875 1.009431
vt 0.999875 -0.124375
vt 0.750125 -0.124375
vt 0.999875 -0.124375
vt 0.999875 1.009431
vt 0.750125 1.009431
vt 0.937500 0.092047
vt 0.812500 0.092047
vt 0.812500 1.000000
vt 0.937500 1.000000
vt 0.062500 0.625000
vt 0.187500 0.625000
vt 0.187500 0.375000
vt 0.062500 0.375000
vt 0.937500 0.375000
vt 0.812500 0.375000
vt 0.812500 0.625000
vt 0.937500 0.625000
vt 0.187500 0.000000
vt 0.062500 0.000000
vt 0.062500 0.907953
vt 0.187500 0.907953
vt 0.750125 1.009431
vt 0.750125 -0.124375
vt 0.999875 -0.124375
vt 0.999875 1.009431
vt 0.750125 1.009431
vt 0.999875 1.009431
vt 0.999875 -0.124375
vt 0.750125 -0.124375
vt 0.062500 0.907953
vt 0.062500 0.000000
vt 0.187500 0.000000
vt 0.187500 0.907953
vt 0.937500 0.375000
vt 0.937500 0.625000
vt 0.812500 0.625000
vt 0.812500 0.375000
vt 0.187500 0.375000
vt 0.187500 0.625000
vt 0.062500 0.625000
vt 0.062500 0.375000
vt 0.812500 1.000000
vt 0.812500 0.092047
vt 0.937500 0.092047
vt 0.937500 1.000000
vn 0.0000 0.0000 1.0000
vn 0.0000 0.0000 -1.0000
vn 0.0000 -1.0000 0.0000
vn 0.0000 1.0000 0.0000
vn -1.0000 0.0000 0.0000
vn 1.0000 0.0000 0.0000
vn 0.8944 0.4472 0.0000
vn 0.4472 -0.8944 0.0000
vn -0.4472 0.8944 0.0000
vn -0.8944 -0.4472 0.0000
vn -0.8944 0.4472 0.0000
vn 0.4472 0.8944 0.0000
vn -0.4472 -0.8944 0.0000
vn 0.8944 -0.4472 0.0000
usemtl beam
s off
f 1/1/1 3/2/1 4/3/1 2/4/1
f 5/5/2 6/6/2 8/7/2 7/8/2
f 3/9/3 7/8/3 8/7/3 4/10/3
f 2/11/4 6/12/4 5/13/4 1/14/4
f 1/15/5 5/16/5 7/17/5 3/18/5
f 4/19/6 8/20/6 6/21/6 2/22/6
f 12/23/1 10/24/1 9/25/1 11/26/1
f 16/27/2 15/28/2 13/29/2 14/30/2
f 9/31/7 13/32/7 15/33/7 11/34/7
f 10/35/8 14/36/8 13/37/8 9/38/8
f 11/39/9 15/40/9 16/41/9 12/42/9
f 12/43/10 16/44/10 14/45/10 10/46/10
f 18/47/1 20/48/1 19/49/1 17/50/1
f 22/51/2 21/52/2 23/53/2 24/54/2
f 17/55/11 19/56/11 23/57/11 21/58/11
f 19/59/12 20/60/12 24/61/12 23/62/12
f 18/63/13 17/64/13 21/65/13 22/66/13
f 20/67/14 18/68/14 22/69/14 24/70/14
