# Blender v3.2.2 OBJ File: 'minetest - wooden beam set.blend'
# www.blender.org
o beam_6_Cube.074
v -0.625000 -0.375000 0.625000
v 0.625000 -0.375000 0.625000
v -0.625000 -0.625000 0.625000
v 0.625000 -0.625000 0.625000
v -0.625000 -0.375000 0.375000
v 0.625000 -0.375000 0.375000
v -0.625000 -0.625000 0.375000
v 0.625000 -0.625000 0.375000
v 0.586804 -0.394099 0.562500
v 0.363197 -0.505902 0.562500
v 0.111804 0.555901 0.562500
v -0.111803 0.444097 0.562500
v 0.586804 -0.394099 0.437500
v 0.363197 -0.505902 0.437500
v 0.111804 0.555901 0.437500
v -0.111803 0.444097 0.437500
v -0.586803 -0.394099 0.560500
v -0.363197 -0.505902 0.560500
v -0.111803 0.555901 0.560500
v 0.111803 0.444097 0.560500
v -0.586803 -0.394099 0.435500
v -0.363197 -0.505902 0.435500
v -0.111803 0.555901 0.435500
v 0.111803 0.444097 0.435500
vt 0.000125 1.124375
vt 0.249875 1.124375
vt 0.249875 -0.124375
vt 0.000125 -0.124375
vt 0.000125 1.124375
vt 0.000125 -0.124375
vt 0.249875 -0.124375
vt 0.249875 1.124375
vt 0.750125 -0.124375
vt 0.750125 1.009431
vt 0.999875 1.009431
vt 0.999875 -0.124375
vt 0.750125 -0.124375
vt 0.999875 -0.124375
vt 0.999875 1.009431
vt 0.750125 1.009431
vt 0.937500 0.092047
vt 0.812500 0.092047
vt 0.812500 1.000000
vt 0.937500 1.000000
vt 0.062500 0.625000
vt 0.187500 0.625000
vt 0.187500 0.375000
vt 0.062500 0.375000
vt 0.937500 0.375000
vt 0.812500 0.375000
vt 0.812500 0.625000
vt 0.937500 0.625000
vt 0.187500 0.000000
vt 0.062500 0.000000
vt 0.062500 0.907953
vt 0.187500 0.907953
vt 0.750125 1.009431
vt 0.999875 1.009431
vt 0.999875 -0.124375
vt 0.750125 -0.124375
vt 0.750125 1.009431
vt 0.750125 -0.124375
vt 0.999875 -0.124375
vt 0.999875 1.009431
vt 0.062500 0.907953
vt 0.187500 0.907953
vt 0.187500 0.000000
vt 0.062500 0.000000
vt 0.937500 0.375000
vt 0.812500 0.375000
vt 0.812500 0.625000
vt 0.937500 0.625000
vt 0.187500 0.375000
vt 0.062500 0.375000
vt 0.062500 0.625000
vt 0.187500 0.625000
vt 0.812500 1.000000
vt 0.937500 1.000000
vt 0.937500 0.092047
vt 0.812500 0.092047
vn 0.0000 0.0000 1.0000
vn 0.0000 0.0000 -1.0000
vn 0.0000 -1.0000 0.0000
vn 0.0000 1.0000 0.0000
vn -1.0000 0.0000 0.0000
vn 1.0000 0.0000 0.0000
vn 0.8944 0.4472 0.0000
vn 0.4472 -0.8944 0.0000
vn -0.4472 0.8944 0.0000
vn -0.8944 -0.4472 0.0000
vn 0.8944 -0.4472 0.0000
vn -0.4472 -0.8944 0.0000
vn 0.4472 0.8944 0.0000
vn -0.8944 0.4472 0.0000
s off
f 1/1/1 3/2/1 4/3/1 2/4/1
f 5/5/2 6/6/2 8/7/2 7/8/2
f 3/2/3 7/8/3 8/7/3 4/3/3
f 2/4/4 6/6/4 5/5/4 1/1/4
f 1/1/5 5/5/5 7/8/5 3/2/5
f 4/3/6 8/7/6 6/6/6 2/4/6
f 12/9/1 10/10/1 9/11/1 11/12/1
f 16/13/2 15/14/2 13/15/2 14/16/2
f 9/17/7 13/18/7 15/19/7 11/20/7
f 10/21/8 14/22/8 13/23/8 9/24/8
f 11/25/9 15/26/9 16/27/9 12/28/9
f 12/29/10 16/30/10 14/31/10 10/32/10
f 18/33/2 17/34/2 19/35/2 20/36/2
f 22/37/1 24/38/1 23/39/1 21/40/1
f 17/41/11 21/42/11 23/43/11 19/44/11
f 19/45/12 23/46/12 24/47/12 20/48/12
f 18/49/13 22/50/13 21/51/13 17/52/13
f 20/53/14 24/54/14 22/55/14 18/56/14
